# xmcd CD database file
#
# Track frame offsets:
#	150
#	15838
#	42518
#	67935
#	88383
#	107928
#	126328
#	144003
#	162385
#	182695
#
# Disc length: 2737 seconds
#
# Revision: 0
# Processed by: cddbd v1.5PL3 Copyright (c) Steve Scherf et al.
# Submitted via: CDex 1.50
#
DISCID=820aaf0a
DTITLE=金曲 - ?的最愛
DYEAR=1995
DGENRE=Ballad
TTITLE0=明天我要嫁給?　-　周華健
TTITLE1=?是我一輩子的愛　-　潘越雲
TTITLE2=飄洋過海來看?　-　娃娃
TTITLE3=愛如潮水　-　張信哲
TTITLE4=鬼迷心竅　-　李宗盛
TTITLE5=夢醒時分　-　陳淑樺
TTITLE6=我很醜　可是我很温柔　-　趙傳
TTITLE7=感受　-　成龍
TTITLE8=把悲傷留給自己　-　陳昇
TTITLE9=愛的代價　-　張艾嘉
EXTD=YEAR: 1995
EXTT0=
EXTT1=
EXTT2=
EXTT3=
EXTT4=
EXTT5=
EXTT6=
EXTT7=
EXTT8=
EXTT9=
PLAYORDER=
